# AST/ASF file generated using VICON BodyLanguage
# -----------------------------------------------
:version 1.10
:name VICON
:units
  mass 1.0
  length 0.45
  angle deg
:documentation
   .ast/.asf automatically generated from VICON data using
   VICON BodyBuilder and BodyLanguage model FoxedUp or BRILLIANT.MOD
:root
   order TX TY TZ RX RY RZ
   axis XYZ
   position 0 0 0  
   orientation 0 0 0 
:bonedata
  begin
     id 1 
     name lhipjoint
     direction 0.561001 -0.76473 0.316963 
     length 2.4722 
     axis 0 0 0  XYZ
  end
  begin
     id 2 
     name lfemur
     direction 0.34202 -0.939693 0  
     length 7.59403  
     axis 0 0 20  XYZ
    dof rx ry rz
    limits (-160.0 20.0)
           (-70.0 70.0)
           (-60.0 70.0)
  end
  begin
     id 3 
     name ltibia
     direction 0.34202 -0.939693 0   
     length 7.89655   
     axis 0 0 20   XYZ
    dof rx
    limits (-10.0 170.0)
  end
  begin
     id 4 
     name lfoot
     direction 0.061296 -0.168409 0.98381   
     length 2.73287   
     axis -90 7.62852e-016 20   XYZ
    dof rx rz
    limits (-45.0 90.0)
           (-70.0 20.0)
  end
  begin
     id 5 
     name ltoes
     direction 1.53547e-011 -4.21984e-011 1   
     length 1.37057   
     axis -90 7.62852e-016 20   XYZ
    dof rx
    limits (-90.0 20.0)
  end
  begin
     id 6 
     name rhipjoint
     direction -0.559611 -0.765599 0.317323   
     length 2.46939  
     axis 0 0 0  XYZ 
  end
  begin
     id 7 
     name rfemur
     direction -0.34202 -0.939693 0   
     length 7.53712   
     axis 0 0 -20   XYZ
    dof rx ry rz
    limits (-160.0 20.0)
           (-70.0 70.0)
           (-70.0 60.0)
  end
  begin
     id 8 
     name rtibia
     direction -0.34202 -0.939693 0   
     length 8.12549   
     axis 0 0 -20   XYZ
    dof rx
    limits (-10.0 170.0)
 end
 begin
     id 9 
     name rfoot
     direction -0.066984 -0.184037 0.980634   
     length 2.67541  
     axis -90 -7.62852e-016 -20   XYZ
    dof rx rz
    limits (-45.0 90.0)
           (-20.0 70.0)
  end
  begin
     id 10 
     name rtoes
     direction -1.53549e-011 -4.21786e-011 1   
     length 1.34085   
     axis -90 -7.62852e-016 -20   XYZ
    dof rx
    limits (-90.0 20.0)
  end
  begin
     id 11 
     name lowerback
     direction -0.0522728 0.992594 -0.109658   
     length 2.05633   
     axis 0 0 0   XYZ
    dof rx ry rz
    limits (-20.0 45.0)
           (-30.0 30.0)
           (-30.0 30.0)
  end
  begin
     id 12 
     name upperback
     direction 0.00589338 0.999977 0.00335704   
     length 2.05845   
     axis 0 0 0   XYZ
    dof rx ry rz
    limits (-20.0 45.0)
           (-30.0 30.0)
           (-30.0 30.0)
  end
  begin
     id 13 
     name thorax
     direction 0.0292928 0.998059 0.0549487   
     length 2.09281   
     axis 0 0 0   XYZ
    dof rx ry rz
    limits (-20.0 45.0)
           (-30.0 30.0)
           (-30.0 30.0)
  end
  begin
     id 14 
     name lowerneck
     direction 0.0356368 0.980775 0.191858   
     length 1.84767   
     axis 0 0 0   XYZ
    dof rx ry rz
    limits (-20.0 45.0)
           (-30.0 30.0)
           (-30.0 30.0)
  end
  begin
     id 15 
     name upperneck
     direction -0.0227605 0.98931 -0.14404   
     length 1.89582   
     axis 0 0 0   XYZ
    dof rx ry rz
    limits (-20.0 45.0)
           (-30.0 30.0)
           (-30.0 30.0)
  end
  begin
     id 16
     name head
     direction -0.00932985 0.997511 -0.0698904  
     length 1.90213  
     axis 0 0 0   XYZ
    dof rx ry rz
    limits (-20.0 45.0)
           (-30.0 30.0)
           (-30.0 30.0)
  end
  begin
     id 17 
     name lclavicle
     direction 0.873442 0.479511 0.0846686  
     length 3.41193  
     axis 0 0 0   XYZ
    dof ry rz
    limits (-20.0 10.0)
           (0.0 20.0)
  end
  begin
     id 18 
     name lhumerus
     direction 1 -4.4897e-011 -5.62117e-018   
     length 5.59864   
     axis 180 -30 -90   XYZ
    dof rx ry rz
    limits (-60.0 90.0)
           (-90.0 90.0)
           (-90.0 90.0)
  end
  begin
     id 19
     name lradius
     direction 1 -4.48966e-011 -6.26295e-027   
     length 3.59542   
     axis 180 -30 -90   XYZ
    dof rx
    limits (-10.0 170.0)
  end
  begin
     id 20
     name lwrist
     direction 1 -4.48947e-011 -1.74096e-026   
     length 1.79771   
     axis 1.04567e-014 90 90   XYZ
    dof ry
    limits (-180.0 0.0)
 end
  begin
     id 21 
     name lhand
     direction 1 -4.49085e-011 -3.48469e-026   
     length 0.572014   
     axis 2.22196e-014 90 90   XYZ
    dof rx rz
    limits (-90.0 90.0)
           (-45.0 45.0)
  end
  begin
     id 22 
     name lfingers
     direction 1 -4.48884e-011 -6.96135e-026   
     length 0.461173   
     axis 4.44383e-014 90 90   XYZ
    dof rx
    limits (0.0 90.0)
  end
  begin
     id 23
     name lthumb
     direction 0.707107 -6.34976e-011 0.707107   
     length 0.662154   
     axis -90 45 -5.4397e-014   XYZ
    dof rx rz
    limits (-45.0 45.0)
           (-45.0 45.0)
  end
  begin
     id 24 
     name rclavicle
     direction -0.890242 0.443271 0.104786   
     length 3.46753  
     axis 0 0 0   XYZ 
    dof ry rz
    limits (-10.0 20.0)
           (-20.0 0.0)
  end
  begin
     id 25 
     name rhumerus
     direction -1 -4.48963e-011 -5.41723e-018  
     length 5.8094   
     axis 180 30 90   XYZ
    dof rx ry rz
    limits (-90.0 60.0)
           (-90.0 90.0)
           (-90.0 90.0)
  end
  begin
     id 26 
     name rradius
     direction -1 -4.48958e-011 -6.51059e-027   
     length 3.66953   
     axis 180 30 90   XYZ
    dof rx
    limits (-10.0 170.0)
  end
  begin
     id 27 
     name rwrist
     direction -1 -4.48975e-011 -1.74124e-026   
     length 1.83476   
     axis 1.04567e-014 -90 -90   XYZ
    dof ry
    limits (-180.0 0.0)
  end
  begin
     id 28
     name rhand
     direction -1 -4.49013e-011 -3.48326e-026   
     length 0.57843   
     axis 2.22196e-014 -90 -90   XYZ
    dof rx rz
    limits (-90.0 90.0)
           (-45.0 45.0)
  end
  begin
     id 29
     name rfingers
     direction -1 -4.49023e-011 -6.9669e-026   
     length 0.466345   
     axis 4.44383e-014 -90 -90   XYZ
    dof rx
    limits (0.0 90.0)
  end
  begin
     id 30
     name rthumb
     direction -0.707107 -6.34926e-011 0.707107   
     length 0.669581   
     axis -90 -45 5.4397e-014   XYZ
    dof rx rz
    limits (-45.0 45.0)
           (-45.0 45.0)
  end
:hierarchy
  begin
    root lhipjoint rhipjoint lowerback
    lhipjoint lfemur
    lfemur ltibia
    ltibia lfoot
    lfoot ltoes
    rhipjoint rfemur
    rfemur rtibia
    rtibia rfoot
    rfoot rtoes
    lowerback upperback
    upperback thorax
    thorax lowerneck lclavicle rclavicle
    lowerneck upperneck
    upperneck head
    lclavicle lhumerus
    lhumerus lradius
    lradius lwrist
    lwrist lhand lthumb
    lhand lfingers
    rclavicle rhumerus
    rhumerus rradius
    rradius rwrist
    rwrist rhand rthumb
    rhand rfingers
  end

#!OML:ASF H:\SkateBoarding\Project 1\Capture day 1\Session 1\Skater.ASF
:FULLY-SPECIFIED
:DEGREES
348
root 0.444455 15.5168 8.512 15.4143 11.3216 1.32966
lowerback 17.5758 1.9229 -5.03315
upperback 4.17056 1.72734 1.2976
thorax -5.54453 0.917154 3.86387
lowerneck -14.7048 4.54408 9.02647
upperneck 8.74632 6.99394 -20.1698
head 6.20825 2.35839 -7.3683
rclavicle 5.50634e-014 1.98785e-015
rhumerus -16.9927 -0.396435 -83.1437
rradius 29.1092
rwrist -2.15321
rhand -29.1463 -5.36724
rfingers 7.12502
rthumb -2.49304 -35.3324
lclavicle 5.50634e-014 1.98785e-015
lhumerus -26.2342 -26.9178 88.3008
lradius 70.534
lwrist 35.9301
lhand -23.2525 20.8472
lfingers 7.12502
lthumb 3.19925 50.8029
rfemur -76.7912 2.67364 8.47218
rtibia 91.435
rfoot -8.84318 30.7764
rtoes 1.46772
lfemur -8.34937 -7.13864 -13.7233
ltibia 56.3608
lfoot -19.9723 -34.2481
ltoes 1.18035
349
root 0.420505 15.4582 8.7392 15.503 11.4316 1.42809
lowerback 17.2429 1.89292 -5.05038
upperback 3.99282 1.70349 1.3649
thorax -5.55679 0.910164 3.95447
lowerneck -14.7205 4.56184 9.01036
upperneck 8.7777 7.02444 -20.1506
head 6.22397 2.37166 -7.35588
rclavicle -2.40529e-014 2.50469e-014
rhumerus -16.7465 0.0191622 -82.7052
rradius 28.9384
rwrist -2.05361
rhand -28.9954 -5.39419
rfingers 7.12502
rthumb -2.34729 -35.361
lclavicle -2.40529e-014 2.50469e-014
lhumerus -24.8042 -27.8301 87.3345
lradius 72.5795
lwrist 35.6493
lhand -23.2296 20.5517
lfingers 7.12502
lthumb 3.22138 50.5071
rfemur -77.4627 2.30287 8.44807
rtibia 91.855
rfoot -8.51045 30.7164
rtoes 1.52871
lfemur -6.97912 -7.39561 -13.6618
ltibia 55.1492
lfoot -19.6672 -34.4209
ltoes 1.64852
350
root 0.395029 15.4059 8.97646 15.6211 11.5587 1.5422
lowerback 16.8757 1.85055 -5.0815
upperback 3.79448 1.66198 1.42536
thorax -5.57009 0.895277 4.04962
lowerneck -14.7481 4.58058 8.98079
upperneck 8.8542 7.06381 -20.1183
head 6.25594 2.38701 -7.33647
rclavicle -2.96189e-014 -1.78906e-014
rhumerus -16.4932 0.397 -82.2747
rradius 28.7523
rwrist -1.95477
rhand -28.8601 -5.44015
rfingers 7.12502
rthumb -2.21658 -35.4084
lclavicle -2.96189e-014 -1.78906e-014
lhumerus -23.3042 -28.5946 86.2771
lradius 74.5634
lwrist 35.3158
lhand -23.2812 20.2274
lfingers 7.12502
lthumb 3.17154 50.1836
rfemur -78.0987 1.91733 8.43299
rtibia 92.228
rfoot -8.26682 30.6423
rtoes 1.50279
lfemur -5.49593 -7.6931 -13.6224
ltibia 53.6743
lfoot -19.3813 -34.4665
ltoes 2.09487
351
root 0.368064 15.3607 9.22436 15.7675 11.7101 1.66756
lowerback 16.4714 1.78975 -5.11807
upperback 3.57723 1.59672 1.48049
thorax -5.58003 0.869291 4.1473
lowerneck -14.7829 4.60243 8.9386
upperneck 8.97005 7.11519 -20.0796
head 6.30243 2.40603 -7.31212
rclavicle 1.47101e-014 5.56597e-015
rhumerus -16.2309 0.716038 -81.8605
rradius 28.5514
rwrist -1.84533
rhand -28.7224 -5.53757
rfingers 7.12502
rthumb -2.0836 -35.5071
lclavicle 1.47101e-014 5.56597e-015
lhumerus -21.7584 -29.1992 85.1481
lradius 76.4759
lwrist 34.9593
lhand -23.4423 19.8567
lfingers 7.12502
lthumb 3.01598 49.8151
rfemur -78.6901 1.51247 8.43586
rtibia 92.5509
rfoot -8.13042 30.5555
rtoes 1.35812
lfemur -3.89914 -8.04108 -13.6021
ltibia 51.9275
lfoot -19.131 -34.3439
ltoes 2.49181
352
root 0.339617 15.3232 9.48317 15.9419 11.8975 1.79781
lowerback 16.0293 1.70596 -5.1478
upperback 3.34108 1.50394 1.53279
thorax -5.58513 0.83016 4.2436
lowerneck -14.823 4.62797 8.88595
upperneck 9.12326 7.17994 -20.0425
head 6.36325 2.42912 -7.28576
rclavicle -1.68967e-014 3.57812e-015
rhumerus -15.9583 0.966475 -81.4691
rradius 28.3344
rwrist -1.75143
rhand -28.5737 -5.69901
rfingers 7.12502
rthumb -1.93998 -35.6699
lclavicle -1.68967e-014 3.57812e-015
lhumerus -20.1958 -29.639 83.9713
lradius 78.3125
lwrist 34.6157
lhand -23.7046 19.4414
lfingers 7.12502
lthumb 2.76265 49.4033
rfemur -79.2287 1.07821 8.469
rtibia 92.821
rfoot -8.08581 30.4622
rtoes 1.11243
lfemur -2.19086 -8.45529 -13.5932
ltibia 49.8991
lfoot -18.8983 -34.0288
ltoes 2.86985
353
root 0.309949 15.2938 9.75314 16.1403 12.1282 1.92426
lowerback 15.5505 1.59515 -5.15593
upperback 3.08769 1.38076 1.58573
thorax -5.58334 0.776117 4.33395
lowerneck -14.865 4.65919 8.82526
upperneck 9.30933 7.26161 -20.0182
head 6.43772 2.45767 -7.26128
rclavicle 3.49861e-014 -1.86858e-014
rhumerus -15.6751 1.14771 -81.1054
rradius 28.1003
rwrist -1.68206
rhand -28.4475 -5.92338
rfingers 7.12502
rthumb -1.81814 -35.8954
lclavicle 3.49861e-014 -1.86858e-014
lhumerus -18.6416 -29.9095 82.7706
lradius 80.0687
lwrist 34.3113
lhand -24.0274 18.9392
lfingers 7.12502
lthumb 2.45093 48.9049
rfemur -79.7035 0.60929 8.54416
rtibia 93.0348
rfoot -8.11948 30.3724
rtoes 0.796496
lfemur -0.364298 -8.95433 -13.5889
ltibia 47.5745
lfoot -18.6574 -33.5047
ltoes 3.25649
354
root 0.279307 15.2728 10.0343 16.3568 12.4084 2.03595
lowerback 15.0403 1.45583 -5.12276
upperback 2.81701 1.22769 1.63973
thorax -5.57705 0.707036 4.40677
lowerneck -14.9081 4.69739 8.77077
upperneck 9.52963 7.36168 -20.0213
head 6.52768 2.4919 -7.24619
rclavicle 4.37326e-015 2.42517e-014
rhumerus -15.3874 1.24738 -80.7779
rradius 27.8522
rwrist -1.63982
rhand -28.3364 -6.22932
rfingers 7.12502
rthumb -1.71077 -36.2022
lclavicle 4.37326e-015 2.42517e-014
lhumerus -17.1208 -30.0238 81.5712
lradius 81.7401
lwrist 34.0438
lhand -24.4184 18.4095
lfingers 7.12502
lthumb 2.0733 48.3791
rfemur -80.1022 0.105093 8.6738
rtibia 93.2289
rfoot -8.22821 30.3276
rtoes 0.445115
lfemur 1.51745 -9.54816 -13.5796
ltibia 45.1079
lfoot -18.4199 -32.839
ltoes 3.69259
355
root 0.248086 15.2605 10.3262 16.5886 12.7388 2.12405
lowerback 14.5003 1.28591 -5.03642
upperback 2.53181 1.04328 1.69902
thorax -5.56385 0.621734 4.45946
lowerneck -14.9582 4.74641 8.71723
upperneck 9.78404 7.48727 -20.0554
head 6.63547 2.53438 -7.23999
rclavicle -1.19271e-015 -2.8625e-014
rhumerus -15.089 1.27669 -80.488
rradius 27.5963
rwrist -1.64728
rhand -28.2278 -6.62495
rfingers 7.12502
rthumb -1.60593 -36.5987
lclavicle -1.19271e-015 -2.8625e-014
lhumerus -15.6511 -29.9739 80.3968
lradius 83.3132
lwrist 33.7966
lhand -24.8174 17.8327
lfingers 7.12502
lthumb 1.68797 47.8058
rfemur -80.4239 -0.434104 8.8642
rtibia 93.3573
rfoot -8.33352 30.2989
rtoes 0.142921
lfemur 3.5153 -10.2446 -13.5601
ltibia 42.3428
lfoot -18.1205 -31.9286
ltoes 4.24424
356
root 0.216737 15.2017 10.6104 16.8256 13.1175 2.18514
lowerback 13.9441 1.08693 -4.89072
upperback 2.23293 0.828885 1.76303
thorax -5.55053 0.520703 4.48683
lowerneck -15.0199 4.81034 8.67592
upperneck 10.0779 7.64457 -20.1316
head 6.76576 2.58715 -7.24797
rclavicle -4.07509e-014 -5.56597e-015
rhumerus -14.7906 1.25088 -80.2447
rradius 27.3335
rwrist -1.69193
rhand -28.1606 -7.08645
rfingers 7.12502
rthumb -1.54105 -37.0606
lclavicle -4.07509e-014 -5.56597e-015
lhumerus -14.2499 -29.7714 79.2704
lradius 84.778
lwrist 33.5516
lhand -25.2136 17.1894
lfingers 7.12502
lthumb 1.30527 47.1652
rfemur -81.0931 -1.10382 9.09467
rtibia 93.6872
rfoot -8.25796 30.2111
rtoes -0.164975
lfemur 5.59819 -11.0446 -13.5109
ltibia 39.4051
lfoot -17.7503 -30.8473
ltoes 4.964
357
root 0.185127 15.2049 10.9213 17.0598 13.5413 2.21259
lowerback 13.3782 0.862707 -4.68316
upperback 1.92526 0.588885 1.83569
thorax -5.53655 0.405737 4.49021
lowerneck -15.099 4.88853 8.64363
upperneck 10.4104 7.83306 -20.2459
head 6.91933 2.64963 -7.26832
rclavicle -8.15017e-015 1.19271e-014
rhumerus -14.4923 1.17999 -80.0448
rradius 27.074
rwrist -1.76274
rhand -28.1276 -7.60539
rfingers 7.12502
rthumb -1.50914 -37.5798
lclavicle -8.15017e-015 1.19271e-014
lhumerus -12.9273 -29.4207 78.2159
lradius 86.1227
lwrist 33.2641
lhand -25.5794 16.5054
lfingers 7.12502
lthumb 0.952014 46.4831
rfemur -81.2471 -1.69676 9.40624
rtibia 93.6806
rfoot -8.26161 30.2323
rtoes -0.227468
lfemur 7.87137 -11.9407 -13.4668
ltibia 36.0041
lfoot -17.2588 -29.3685
ltoes 5.89226
358
root 0.153278 15.2158 11.2405 17.2867 13.9997 2.21578
lowerback 12.8163 0.621344 -4.42643
upperback 1.60852 0.33028 1.91082
thorax -5.53133 0.280498 4.46857
lowerneck -15.1965 4.97947 8.62493
upperneck 10.7825 8.04893 -20.3892
head 7.09615 2.72047 -7.29921
rclavicle 8.15017e-015 -1.11319e-014
rhumerus -14.2028 1.06534 -79.8914
rradius 26.8249
rwrist -1.8572
rhand -28.1258 -8.15383
rfingers 7.12502
rthumb -1.50742 -38.1283
lclavicle 8.15017e-015 -1.11319e-014
lhumerus -11.6918 -28.9426 77.2531
lradius 87.3362
lwrist 32.8992
lhand -25.9168 15.8097
lfingers 7.12502
lthumb 0.62609 45.7886
rfemur -81.3151 -2.30521 9.76262
rtibia 93.6043
rfoot -8.24056 30.2802
rtoes -0.226418
lfemur 10.2927 -12.9165 -13.4194
ltibia 32.2638
lfoot -16.6695 -27.5333
ltoes 7.06427
359
root 0.121128 15.2344 11.5674 17.4959 14.4812 2.2023
lowerback 12.2709 0.368751 -4.13791
upperback 1.29037 0.05753 1.98808
thorax -5.53496 0.14722 4.43059
lowerneck -15.3214 5.08304 8.60687
upperneck 11.1923 8.2917 -20.5432
head 7.29614 2.79956 -7.33187
rclavicle -2.26615e-014 1.51076e-014
rhumerus -13.9242 0.932052 -79.7817
rradius 26.6006
rwrist -1.96889
rhand -28.1413 -8.71747
rfingers 7.12502
rthumb -1.52233 -38.6918
lclavicle -2.26615e-014 1.51076e-014
lhumerus -10.541 -28.344 76.398
lradius 88.4129
lwrist 32.4235
lhand -26.1948 15.1087
lfingers 7.12502
lthumb 0.357617 45.0882
rfemur -81.2902 -2.9049 10.1423
rtibia 93.4178
rfoot -8.19184 30.3138
rtoes -0.175866
lfemur 13.0335 -13.9487 -13.377
ltibia 27.8468
lfoot -15.9704 -25.1226
ltoes 8.50646
360
root 0.0883432 15.2598 11.9004 17.6814 14.977 2.18663
lowerback 11.7548 0.113342 -3.84149
upperback 0.974515 -0.222307 2.06152
thorax -5.55205 0.00979026 4.38257
lowerneck -15.4685 5.1932 8.58988
upperneck 11.6306 8.54864 -20.6893
head 7.51263 2.88269 -7.36112
rclavicle -2.06736e-014 -4.77083e-015
rhumerus -13.664 0.792908 -79.7138
rradius 26.4136
rwrist -2.09516
rhand -28.1624 -9.27972
rfingers 7.12502
rthumb -1.54277 -39.2539
lclavicle -2.06736e-014 -4.77083e-015
lhumerus -9.47231 -27.6499 75.6584
lradius 89.3527
lwrist 31.8328
lhand -26.4129 14.3934
lfingers 7.12502
lthumb 0.146956 44.3731
rfemur -81.1728 -3.49277 10.5263
rtibia 93.169
rfoot -8.14908 30.3676
rtoes -0.0832341
lfemur 16.0702 -15.0092 -13.3502
ltibia 22.8287
lfoot -15.245 -22.1268
ltoes 10.2052
